<svg width="15" height="13" viewBox="0 0 15 13" fill="none" xmlns="http://www.w3.org/2000/svg">
<path d="M7.18184 12.1818L1.34093 6.3409C0.875018 5.87499 0.564411 5.33332 0.409108 4.7159C0.257593 4.09847 0.259487 3.48484 0.41479 2.87499C0.570093 2.26135 0.878806 1.72726 1.34093 1.27272C1.81441 0.806807 2.35418 0.498095 2.96024 0.34658C3.57009 0.191277 4.17805 0.191277 4.78411 0.34658C5.39396 0.501883 5.93562 0.810595 6.40911 1.27272L7.18184 2.02272L7.95456 1.27272C8.43184 0.810595 8.9735 0.501883 9.57956 0.34658C10.1856 0.191277 10.7917 0.191277 11.3977 0.34658C12.0076 0.498095 12.5493 0.806807 13.0227 1.27272C13.4849 1.72726 13.7936 2.26135 13.9489 2.87499C14.1042 3.48484 14.1042 4.09847 13.9489 4.7159C13.7974 5.33332 13.4887 5.87499 13.0227 6.3409L7.18184 12.1818Z" fill="black"/>
</svg>
